<svg viewBox="0 0 272 80" fill="none" xmlns="http://www.w3.org/2000/svg">
<circle cx="40" cy="40" r="40" fill="#5C85E7"/>
<path d="M46.4318 33.1818C46.2614 31.7424 45.5701 30.625 44.358 29.8295C43.1458 29.0341 41.6591 28.6364 39.8977 28.6364C38.6098 28.6364 37.483 28.8447 36.517 29.2614C35.5606 29.678 34.8125 30.2509 34.2727 30.9801C33.7424 31.7093 33.4773 32.5379 33.4773 33.4659C33.4773 34.2424 33.6619 34.91 34.0312 35.4688C34.41 36.018 34.893 36.4773 35.4801 36.8466C36.0672 37.2064 36.6828 37.5047 37.3267 37.7415C37.9706 37.9687 38.5625 38.1534 39.1023 38.2955L42.0568 39.0909C42.8144 39.2898 43.6572 39.5644 44.5852 39.9148C45.5227 40.2652 46.4176 40.7434 47.2699 41.3494C48.1316 41.946 48.8419 42.7131 49.4006 43.6506C49.9593 44.5881 50.2386 45.7386 50.2386 47.1023C50.2386 48.6742 49.8267 50.0947 49.0028 51.3636C48.1884 52.6326 46.9953 53.6411 45.4233 54.3892C43.8608 55.1373 41.9621 55.5114 39.7273 55.5114C37.6439 55.5114 35.84 55.1752 34.3153 54.5028C32.8002 53.8305 31.607 52.893 30.7358 51.6903C29.8741 50.4877 29.3864 49.0909 29.2727 47.5H32.9091C33.0038 48.5985 33.3731 49.5076 34.017 50.2273C34.6705 50.9375 35.4943 51.4678 36.4886 51.8182C37.4924 52.1591 38.572 52.3295 39.7273 52.3295C41.072 52.3295 42.2794 52.1117 43.3494 51.6761C44.4195 51.2311 45.267 50.6155 45.892 49.8295C46.517 49.0341 46.8295 48.1061 46.8295 47.0455C46.8295 46.0795 46.5597 45.2936 46.0199 44.6875C45.4801 44.0814 44.7699 43.589 43.8892 43.2102C43.0085 42.8314 42.0568 42.5 41.0341 42.2159L37.4545 41.1932C35.1818 40.5398 33.3826 39.607 32.0568 38.3949C30.7311 37.1828 30.0682 35.5966 30.0682 33.6364C30.0682 32.0076 30.5085 30.5871 31.3892 29.375C32.2794 28.1534 33.4725 27.2064 34.9688 26.5341C36.4744 25.8523 38.1553 25.5114 40.0114 25.5114C41.8864 25.5114 43.553 25.8475 45.0114 26.5199C46.4697 27.1828 47.625 28.0919 48.4773 29.2472C49.339 30.4025 49.7936 31.714 49.8409 33.1818H46.4318Z" fill="#FDFDFD"/>
<path d="M87.0682 63.1818V33.1818H90.3068V36.6477H90.7045C90.9508 36.2689 91.2917 35.786 91.7273 35.1989C92.1723 34.6023 92.8068 34.072 93.6307 33.608C94.464 33.1345 95.5909 32.8977 97.0114 32.8977C98.8485 32.8977 100.468 33.357 101.869 34.2756C103.271 35.1941 104.365 36.4962 105.151 38.1818C105.937 39.8674 106.33 41.8561 106.33 44.1477C106.33 46.4583 105.937 48.4612 105.151 50.1562C104.365 51.8419 103.276 53.1487 101.884 54.0767C100.491 54.9953 98.8864 55.4545 97.0682 55.4545C95.6667 55.4545 94.5445 55.2225 93.7017 54.7585C92.8589 54.285 92.2102 53.75 91.7557 53.1534C91.3011 52.5473 90.9508 52.0455 90.7045 51.6477H90.4205V63.1818H87.0682ZM90.3636 44.0909C90.3636 45.7386 90.6051 47.1922 91.0881 48.4517C91.571 49.7017 92.2765 50.6818 93.2045 51.392C94.1326 52.0928 95.2689 52.4432 96.6136 52.4432C98.0152 52.4432 99.1847 52.0739 100.122 51.3352C101.069 50.5871 101.779 49.5833 102.253 48.3239C102.736 47.0549 102.977 45.6439 102.977 44.0909C102.977 42.5568 102.741 41.1742 102.267 39.9432C101.803 38.7027 101.098 37.7225 100.151 37.0028C99.2131 36.2737 98.0341 35.9091 96.6136 35.9091C95.25 35.9091 94.1042 36.2547 93.1761 36.946C92.2481 37.6278 91.5473 38.5843 91.0739 39.8153C90.6004 41.0369 90.3636 42.4621 90.3636 44.0909ZM120.591 55.4545C118.489 55.4545 116.675 54.9905 115.151 54.0625C113.635 53.125 112.466 51.8182 111.642 50.142C110.828 48.4564 110.42 46.4962 110.42 44.2614C110.42 42.0265 110.828 40.0568 111.642 38.3523C112.466 36.6383 113.612 35.303 115.08 34.3466C116.557 33.3807 118.28 32.8977 120.25 32.8977C121.386 32.8977 122.509 33.0871 123.616 33.4659C124.724 33.8447 125.733 34.4602 126.642 35.3125C127.551 36.1553 128.276 37.2727 128.815 38.6648C129.355 40.0568 129.625 41.7708 129.625 43.8068V45.2273H112.807V42.3295H126.216C126.216 41.0985 125.97 40 125.477 39.0341C124.994 38.0682 124.303 37.3059 123.403 36.7472C122.513 36.1884 121.462 35.9091 120.25 35.9091C118.915 35.9091 117.759 36.2405 116.784 36.9034C115.818 37.5568 115.075 38.4091 114.554 39.4602C114.033 40.5114 113.773 41.6383 113.773 42.8409V44.7727C113.773 46.4205 114.057 47.8172 114.625 48.9631C115.203 50.0994 116.003 50.9659 117.026 51.5625C118.048 52.1496 119.237 52.4432 120.591 52.4432C121.472 52.4432 122.267 52.3201 122.977 52.0739C123.697 51.8182 124.317 51.4394 124.838 50.9375C125.359 50.4261 125.761 49.7917 126.045 49.0341L129.284 49.9432C128.943 51.0417 128.37 52.0076 127.565 52.8409C126.76 53.6648 125.766 54.3087 124.582 54.7727C123.399 55.2273 122.068 55.4545 120.591 55.4545ZM138.077 41.875V55H134.724V33.1818H137.963V36.5909H138.247C138.759 35.483 139.535 34.5928 140.577 33.9205C141.618 33.2386 142.963 32.8977 144.611 32.8977C146.088 32.8977 147.381 33.2008 148.489 33.8068C149.597 34.4034 150.458 35.3125 151.074 36.5341C151.689 37.7462 151.997 39.2803 151.997 41.1364V55H148.645V41.3636C148.645 39.6496 148.2 38.3144 147.31 37.358C146.42 36.392 145.198 35.9091 143.645 35.9091C142.575 35.9091 141.618 36.1411 140.776 36.6051C139.942 37.0691 139.284 37.7462 138.801 38.6364C138.318 39.5265 138.077 40.6061 138.077 41.875ZM166.362 55.4545C164.543 55.4545 162.938 54.9953 161.546 54.0767C160.154 53.1487 159.065 51.8419 158.279 50.1562C157.493 48.4612 157.1 46.4583 157.1 44.1477C157.1 41.8561 157.493 39.8674 158.279 38.1818C159.065 36.4962 160.159 35.1941 161.56 34.2756C162.962 33.357 164.581 32.8977 166.418 32.8977C167.839 32.8977 168.961 33.1345 169.785 33.608C170.618 34.072 171.253 34.6023 171.688 35.1989C172.133 35.786 172.479 36.2689 172.725 36.6477H173.009V25.9091H176.362V55H173.123V51.6477H172.725C172.479 52.0455 172.129 52.5473 171.674 53.1534C171.219 53.75 170.571 54.285 169.728 54.7585C168.885 55.2225 167.763 55.4545 166.362 55.4545ZM166.816 52.4432C168.161 52.4432 169.297 52.0928 170.225 51.392C171.153 50.6818 171.859 49.7017 172.342 48.4517C172.825 47.1922 173.066 45.7386 173.066 44.0909C173.066 42.4621 172.829 41.0369 172.356 39.8153C171.882 38.5843 171.182 37.6278 170.254 36.946C169.326 36.2547 168.18 35.9091 166.816 35.9091C165.396 35.9091 164.212 36.2737 163.265 37.0028C162.327 37.7225 161.622 38.7027 161.148 39.9432C160.684 41.1742 160.452 42.5568 160.452 44.0909C160.452 45.6439 160.689 47.0549 161.163 48.3239C161.646 49.5833 162.356 50.5871 163.293 51.3352C164.24 52.0739 165.415 52.4432 166.816 52.4432ZM188.705 55L180.751 25.9091H184.33L190.41 49.6023H190.694L196.887 25.9091H200.864L207.058 49.6023H207.342L213.421 25.9091H217.001L209.046 55H205.41L198.989 31.8182H198.762L192.342 55H188.705ZM220.935 55V33.1818H224.288V55H220.935ZM222.64 29.5455C221.987 29.5455 221.423 29.3229 220.95 28.8778C220.486 28.4328 220.254 27.8977 220.254 27.2727C220.254 26.6477 220.486 26.1127 220.95 25.6676C221.423 25.2225 221.987 25 222.64 25C223.293 25 223.852 25.2225 224.316 25.6676C224.79 26.1127 225.026 26.6477 225.026 27.2727C225.026 27.8977 224.79 28.4328 224.316 28.8778C223.852 29.3229 223.293 29.5455 222.64 29.5455ZM245.882 38.0682L242.871 38.9205C242.681 38.4186 242.402 37.9309 242.033 37.4574C241.673 36.9744 241.18 36.5767 240.555 36.2642C239.93 35.9517 239.13 35.7955 238.155 35.7955C236.82 35.7955 235.707 36.1032 234.817 36.7188C233.936 37.3248 233.496 38.0966 233.496 39.0341C233.496 39.8674 233.799 40.5256 234.405 41.0085C235.011 41.4915 235.958 41.8939 237.246 42.2159L240.484 43.0114C242.435 43.4848 243.889 44.2093 244.845 45.1847C245.802 46.1506 246.28 47.3958 246.28 48.9205C246.28 50.1705 245.92 51.2879 245.2 52.2727C244.49 53.2576 243.496 54.0341 242.217 54.6023C240.939 55.1705 239.452 55.4545 237.757 55.4545C235.532 55.4545 233.69 54.9716 232.232 54.0057C230.773 53.0398 229.85 51.6288 229.462 49.7727L232.643 48.9773C232.946 50.1515 233.519 51.0322 234.362 51.6193C235.214 52.2064 236.327 52.5 237.7 52.5C239.263 52.5 240.503 52.1686 241.422 51.5057C242.35 50.8333 242.814 50.0284 242.814 49.0909C242.814 48.3333 242.549 47.6989 242.018 47.1875C241.488 46.6667 240.674 46.2784 239.575 46.0227L235.939 45.1705C233.941 44.697 232.473 43.9631 231.536 42.9688C230.607 41.965 230.143 40.7102 230.143 39.2045C230.143 37.9735 230.489 36.8845 231.18 35.9375C231.881 34.9905 232.833 34.2472 234.036 33.7074C235.248 33.1676 236.621 32.8977 238.155 32.8977C240.314 32.8977 242.009 33.3712 243.24 34.3182C244.481 35.2652 245.361 36.5152 245.882 38.0682ZM260.474 55.4545C258.371 55.4545 256.558 54.9905 255.033 54.0625C253.518 53.125 252.349 51.8182 251.525 50.142C250.71 48.4564 250.303 46.4962 250.303 44.2614C250.303 42.0265 250.71 40.0568 251.525 38.3523C252.349 36.6383 253.495 35.303 254.962 34.3466C256.44 33.3807 258.163 32.8977 260.133 32.8977C261.269 32.8977 262.391 33.0871 263.499 33.4659C264.607 33.8447 265.616 34.4602 266.525 35.3125C267.434 36.1553 268.158 37.2727 268.698 38.6648C269.238 40.0568 269.508 41.7708 269.508 43.8068V45.2273H252.69V42.3295H266.099C266.099 41.0985 265.853 40 265.36 39.0341C264.877 38.0682 264.186 37.3059 263.286 36.7472C262.396 36.1884 261.345 35.9091 260.133 35.9091C258.798 35.9091 257.642 36.2405 256.667 36.9034C255.701 37.5568 254.958 38.4091 254.437 39.4602C253.916 40.5114 253.656 41.6383 253.656 42.8409V44.7727C253.656 46.4205 253.94 47.8172 254.508 48.9631C255.085 50.0994 255.886 50.9659 256.908 51.5625C257.931 52.1496 259.12 52.4432 260.474 52.4432C261.354 52.4432 262.15 52.3201 262.86 52.0739C263.58 51.8182 264.2 51.4394 264.721 50.9375C265.242 50.4261 265.644 49.7917 265.928 49.0341L269.167 49.9432C268.826 51.0417 268.253 52.0076 267.448 52.8409C266.643 53.6648 265.649 54.3087 264.465 54.7727C263.281 55.2273 261.951 55.4545 260.474 55.4545Z" fill="#FDFDFD"/>
</svg>
